<svg id="Layer_1" data-name="Layer 1" xmlns="http://www.w3.org/2000/svg" viewBox="0 0 142.26 155.31"><title>speech-bubble</title><path d="M61,155.31c.91-2.19,1.69-4.09,2.49-6q3-7.2,6.06-14.4c.6-1.43.56-1.43-1-1.52a151,151,0,0,1-26-3.74,36.42,36.42,0,0,1-18.17-10.31A103.81,103.81,0,0,1,6.5,95.13,44.34,44.34,0,0,1,2.3,82C1.34,76.45.68,70.85.14,65.25-.61,57.39,1.7,50.08,4.67,42.94A63.23,63.23,0,0,1,19.83,20.78a60.07,60.07,0,0,1,13.61-9.69c4.89-2.53,9.84-4.94,14.74-7.44A34,34,0,0,1,68,.27c7.24.83,14.5,1.53,21.59,3.28,6.2,1.53,12.56,2.92,18.06,6.25,11.24,6.82,20.33,15.66,25.73,28.07a105.59,105.59,0,0,1,8.7,34.81,50.6,50.6,0,0,1-3.8,24A79.42,79.42,0,0,1,127.74,114a109.27,109.27,0,0,1-23.82,22.52c-5,3.53-10.71,6-16.38,8.34-8.33,3.45-16.74,6.71-25.12,10C62.05,155,61.65,155.11,61,155.31Z"/></svg>