<svg xmlns="http://www.w3.org/2000/svg" viewBox="0 0 379.16 413.94"><defs><style>.cls-1{fill:#fff;}</style></defs><title>Asset 1</title><g id="Layer_2" data-name="Layer 2"><g id="Layer_1-2" data-name="Layer 1"><path class="cls-1" d="M162.47,413.94c2.43-5.83,4.52-10.9,6.64-15.95,5.38-12.79,10.8-25.56,16.15-38.37,1.59-3.81,1.5-3.81-2.57-4.05a403.29,403.29,0,0,1-69.27-10A97.05,97.05,0,0,1,65,318.11c-18.8-19.42-35.17-40.56-47.69-64.56-5.74-11-9.1-22.94-11.19-35C3.57,203.75,1.82,188.82.39,173.9c-2-21,4.14-40.44,12.06-59.45C21.81,92,35,72.1,52.84,55.39A161.07,161.07,0,0,1,89.12,29.55c13-6.73,26.22-13.17,39.3-19.82,16.71-8.49,34.27-11.18,52.9-9C200.61,2.94,220,4.8,238.84,9.45c16.55,4.08,33.5,7.79,48.13,16.67,30,18.19,54.2,41.75,68.59,74.82a281.08,281.08,0,0,1,23.19,92.75c1.57,22-1.3,43.54-10.12,64-7.2,16.67-17.05,31.81-28.17,46.1a291.48,291.48,0,0,1-63.49,60c-13.47,9.42-28.55,16-43.67,22.24-22.2,9.18-44.61,17.88-66.94,26.76C165.37,413.17,164.31,413.39,162.47,413.94Z"/></g></g></svg>